<svg id="Ebene_1" data-name="Ebene 1" xmlns="http://www.w3.org/2000/svg" viewBox="0 0 304 277"><defs><style>.cls-1,.cls-6{fill:#eeedee;}.cls-1,.cls-3{fill-rule:evenodd;}.cls-2{fill:#6179aa;}.cls-3,.cls-5,.cls-7{fill:none;}.cls-3,.cls-5{stroke:#364767;stroke-width:29px;}.cls-4{fill:#364767;}.cls-7{stroke:#000;stroke-width:7px;}</style></defs><title>RL_Logo</title><path class="cls-1" d="M303.73,264.26c0,7-5.38,12.72-12,12.72h-280c-6.64,0-12-5.69-12-12.72V12.7c0-7,5.38-12.72,12-12.72h280c6.64,0,12,5.7,12,12.72Z"/><rect class="cls-2" x="149" y="19.38" width="31.06" height="238.34"/><rect class="cls-2" x="180.06" y="233.66" width="93.17" height="24.05"/><path class="cls-3" d="M136.52,33.27c-52.48,0-95,26.94-95,60.17s42.54,60.16,95,60.16"/><rect class="cls-4" x="120.06" y="19.38" width="29.05" height="238.34"/><line class="cls-5" x1="27.93" y1="259.41" x2="85.5" y2="152.89"/><rect class="cls-6" x="109.91" y="14.04" width="76.97" height="5.34"/><rect class="cls-6" x="28.72" y="260.41" width="25.56" height="11.35"/><line class="cls-7" x1="18.02" y1="26.2" x2="18.02" y2="262.94"/><polygon points="28.52 29.26 18.05 11.13 7.58 29.26 28.52 29.26"/><line class="cls-7" x1="17.44" y1="259.59" x2="281.53" y2="259.59"/><polygon points="278.47 270.09 296.6 259.62 278.47 249.15 278.47 270.09"/></svg>